<svg xmlns="http://www.w3.org/2000/svg" viewBox="0 0 199.67 58.42"><defs><style>.cls-1{fill:#f29f05;}.cls-2{fill:#fff;}</style></defs><title>CC_Asset 23</title><g id="Layer_2" data-name="Layer 2"><g id="Layer_6" data-name="Layer 6"><path class="cls-1" d="M29.23,58.42a29.21,29.21,0,1,1,29.3-29.16A29.24,29.24,0,0,1,29.23,58.42Zm18.64-36.2-23,11.34.05.2H38.63A17.91,17.91,0,0,1,37.56,36a11.36,11.36,0,0,1-12,4.26,11.07,11.07,0,0,1-7-14.29,10,10,0,0,1,10.31-7.13A14.66,14.66,0,0,1,36,21.38a1,1,0,0,0,1.21.06c1.66-.9,3.34-1.74,5-2.61.4-.21.8-.44,1.23-.68a13.87,13.87,0,0,0-4.35-4.56,18.12,18.12,0,0,0-14.49-2.27c-5.63,1.29-10.1,4.3-12.86,9.48-2.17,4.07-2.34,8.4-1.4,12.83A18.34,18.34,0,0,0,19,46.06c7.8,4.74,18.53,2.57,24.28-4.86a19,19,0,0,0,4-11.9c0-.28,0-.72.23-.82.9-.52,1.84-.94,2.77-1.39l1.22,2.21,5.69-8.53c-.18-.1-.24-.18-.31-.18L47.59,20c-.44,0-.57.19-.41.59S47.61,21.6,47.87,22.22Z"/><path class="cls-1" d="M86.08,24.11a16.57,16.57,0,0,1,2-1.76,2.55,2.55,0,0,1,2.55-.09,1.18,1.18,0,0,0,.53.07c1,0,2,0,3,0,1.26,0,1.26,0,1.6,1.18l2.34,8a5.09,5.09,0,0,0,.32.69c.41-1.37.78-2.55,1.13-3.74.55-1.85,1.09-3.71,1.66-5.56.07-.23.34-.56.53-.57,1.22-.05,2.45,0,3.8,0l-2,5.4c-1.22,3.28-2.43,6.56-3.67,9.83a7.82,7.82,0,0,1-3.66,4.62,6.62,6.62,0,0,1-4.39.27.56.56,0,0,1-.36-.4c0-.94,0-1.87,0-2.93l1,.31a2.45,2.45,0,0,0,3-1.25,4,4,0,0,0,.06-3.83c-1.57-3.65-3-7.36-4.44-11-.07-.16-.17-.3-.25-.45l-.27,0v2c0,1.09,0,1.09-1.05,1-2.19-.24-3.5.89-3.54,3.14,0,2.07,0,4.13,0,6.2,0,.75-.23,1-1,1s-1.73,0-2.6,0c-.5,0-.71-.2-.71-.7,0-4.16,0-8.32,0-12.48,0-.5.24-.63.68-.63,1,0,1.94,0,2.91,0,.55,0,.75.21.72.75A6.58,6.58,0,0,0,86.08,24.11Z"/><path class="cls-1" d="M167.64,30.09c0,1.3,0,2.61,0,3.92a1.12,1.12,0,0,1-.81,1.23,15.39,15.39,0,0,1-8,1.07,9.46,9.46,0,0,1-5.19-2.2,8.26,8.26,0,0,1-2.84-5.74,10.76,10.76,0,0,1,1.49-7.3A9.74,9.74,0,0,1,160,16.73a16.8,16.8,0,0,1,6.07.52c.49.14.71.36.69.87,0,.81,0,1.62,0,2.43,0,.59-.24.68-.73.45a11,11,0,0,0-4.83-.88,5.69,5.69,0,0,0-5.82,4.81A8.5,8.5,0,0,0,155.9,30c1.24,2.76,4.51,3.52,6.95,2.7a.94.94,0,0,0,.48-.69c.06-.94,0-1.89,0-2.83,0-.45-.25-.58-.65-.58-.81,0-1.63,0-2.44,0-.56,0-.83-.19-.81-.77a18.49,18.49,0,0,0,0-2c0-.56.23-.72.75-.72q3.38,0,6.76,0c.52,0,.69.19.68.7C167.63,27.26,167.64,28.67,167.64,30.09Z"/><path class="cls-1" d="M111.63,24.13a5.43,5.43,0,0,1,4.8-2.11,4.7,4.7,0,0,1,4.46,3.37,9.58,9.58,0,0,1-.91,8.72c-1.72,2.58-6,3.22-8,.94,0-.06-.14-.08-.32-.18,0,.33-.06.6-.06.87,0,2,0,3.92,0,5.88,0,.62-.19.84-.82.81-.91,0-1.83,0-2.75,0-.47,0-.67-.21-.67-.66v-2c0-5.47,0-10.94,0-16.41,0-.81.25-1.06,1-1a16.76,16.76,0,0,0,2.35,0c.72-.06,1,.22.87.89A5.81,5.81,0,0,0,111.63,24.13Zm-.14,5.16c0,.58,0,1.16.09,1.72a2.74,2.74,0,0,0,2.27,2.29,2.7,2.7,0,0,0,2.79-1.59,6.75,6.75,0,0,0,.33-4.58,2.33,2.33,0,0,0-1.91-1.93,2.74,2.74,0,0,0-2.9,1.1A4.77,4.77,0,0,0,111.49,29.29Z"/><path class="cls-1" d="M78.89,21.5a21.31,21.31,0,0,0-2.29-.83,6.81,6.81,0,0,0-5.86.9,6.73,6.73,0,0,0-2.15,6.66c.84,3.64,4.07,5,7.14,4.3,1-.21,2-.56,3.11-.89,0,1.17,0,2.38,0,3.58,0,.14-.31.33-.51.41a12.82,12.82,0,0,1-5.55.8A8.9,8.9,0,0,1,66,33.37a8.65,8.65,0,0,1-2-4.93c-.21-2.68,0-5.3,1.63-7.59a9.2,9.2,0,0,1,7.4-4.11,35.78,35.78,0,0,1,4.84.33,1,1,0,0,1,1,1.18C78.83,19.28,78.89,20.33,78.89,21.5Z"/><path class="cls-1" d="M148.76,29c.13,4.58-2.82,7.45-7.42,7.43S134,33.79,134,29.27,136.89,22,141.59,22C146,22,149,25,148.76,29Zm-7.26-3.86a2.78,2.78,0,0,0-2.91,2.12,6.69,6.69,0,0,0,0,4.08,2.81,2.81,0,0,0,2.95,2,2.78,2.78,0,0,0,2.69-2.1,7.36,7.36,0,0,0,.06-3.87A2.65,2.65,0,0,0,141.5,25.15Z"/><path class="cls-1" d="M183.21,24a5.16,5.16,0,0,1,4.1-2c2.88,0,4.27,1.64,4.44,4,.23,3.17.1,6.38.12,9.57,0,.44-.22.59-.64.58-.92,0-1.84,0-2.75,0-.65,0-.8-.26-.8-.84q0-3.5,0-7a6,6,0,0,0-.18-1.39c-.34-1.31-1-1.83-2.2-1.78A2.47,2.47,0,0,0,183,27.26a15.25,15.25,0,0,0-.06,2c0,2,0,3.93,0,5.89,0,.7-.19,1-.94,1s-1.73,0-2.59,0c-.52,0-.78-.16-.78-.72q0-6.24,0-12.48c0-.45.2-.61.62-.61,1,0,2,0,3.07,0,.41,0,.63.16.61.61s0,.64,0,1Z"/><path class="cls-1" d="M132.46,33.15c0,.92,0,1.8,0,2.68a.5.5,0,0,1-.32.36,7.32,7.32,0,0,1-5-.33,2.94,2.94,0,0,1-1.7-2.4c-.17-2.24-.2-4.49-.26-6.73,0-1.25,0-1.29-1.29-1.26-.74,0-1-.27-.92-1,0-.1,0-.21,0-.31,0-.55-.16-1.26.12-1.59s1-.15,1.51-.3a.84.84,0,0,0,.54-.56,9,9,0,0,0,0-1.64.76.76,0,0,1,.68-.89c.94-.22,1.88-.47,2.79-.77.68-.23.85,0,.83.63,0,.81,0,1.63,0,2.44,0,.59.17.88.81.83s1.05,0,1.57,0,.7.16.66.64v.16c.06,2.28.06,2.3-2.21,2.32-.6,0-.84.17-.83.8,0,1.65,0,3.3,0,4.95s.86,2.37,2.59,1.95A2.47,2.47,0,0,1,132.46,33.15Z"/><path class="cls-1" d="M175.15,29.24c0,2,0,4,0,6,0,.77-.24,1-1,.95a20.47,20.47,0,0,0-2.35,0c-.69,0-.92-.22-.92-.9,0-3.06,0-6.12,0-9.18,0-1,0-2,0-3.05,0-.51.2-.7.7-.69.94,0,1.88,0,2.82,0,.55,0,.73.18.73.72C175.13,25.11,175.15,27.17,175.15,29.24Z"/><path class="cls-1" d="M199.38,29.24c0,2,0,4,0,6,0,.71-.22.92-.9.88a22.07,22.07,0,0,0-2.44,0c-.68,0-.92-.22-.91-.9,0-3,0-6,0-9,0-1.07,0-2.14,0-3.21,0-.51.2-.71.7-.69.94,0,1.89,0,2.83,0,.54,0,.73.17.72.72C199.36,25.11,199.38,27.17,199.38,29.24Z"/><path class="cls-1" d="M175.46,18.17a2.29,2.29,0,0,1-2.4,2.26,2.31,2.31,0,0,1-2.45-2.22A2.14,2.14,0,0,1,173,16.05,2.21,2.21,0,0,1,175.46,18.17Z"/><path class="cls-1" d="M197.31,16.05a2.14,2.14,0,0,1,2.36,2.15,2.25,2.25,0,0,1-2.41,2.23,2.31,2.31,0,0,1-2.42-2.25A2.17,2.17,0,0,1,197.31,16.05Z"/><path class="cls-2" d="M47.87,22.22c-.26-.62-.47-1.15-.69-1.68s0-.62.41-.59l9.25.64c.07,0,.13.08.31.18L51.46,29.3l-1.22-2.21c-.93.45-1.87.87-2.77,1.39-.18.1-.23.54-.23.82a19,19,0,0,1-4,11.9C37.48,48.63,26.75,50.8,19,46.06a18.34,18.34,0,0,1-8.56-12.43c-.94-4.43-.77-8.76,1.4-12.83,2.76-5.18,7.23-8.19,12.86-9.48a18.12,18.12,0,0,1,14.49,2.27,13.87,13.87,0,0,1,4.35,4.56c-.43.24-.83.47-1.23.68-1.68.87-3.36,1.71-5,2.61A1,1,0,0,1,36,21.38a14.66,14.66,0,0,0-7.1-2.52A10,10,0,0,0,18.62,26a11.07,11.07,0,0,0,7,14.29,11.36,11.36,0,0,0,12-4.26,17.91,17.91,0,0,0,1.07-2.26H24.94l-.05-.2Z"/></g></g></svg>